<svg xmlns="http://www.w3.org/2000/svg" id="Layer_1" data-name="Layer 1" viewBox="0 0 430.58 115.82"><defs><style>.cls-1{fill:#ea5436;}</style></defs><path class="cls-1" d="M214.25,33.33a26.38,26.38,0,0,0-8.37-3.57,40.24,40.24,0,0,0-9.22-1.08,36.28,36.28,0,0,0-12.26,2A24.25,24.25,0,0,0,175,36.58a22.49,22.49,0,0,0-5.34,9.28h0l0,.08c0,.14-.09.27-.13.41h0c-.1.48-.25,1.22-.37,1.89l14.31.11,0,0,.12,0A11.89,11.89,0,0,1,188,42.64q3.24-2.41,8.77-2.42c3.51,0,6.19.87,8,2.59a9.41,9.41,0,0,1,2.8,7.29v.25A3.55,3.55,0,0,1,206,53.54a13.13,13.13,0,0,1-5.11,1.5q-3.51.48-9.13,1.07a64.93,64.93,0,0,0-9,1.6,28.09,28.09,0,0,0-7.82,3.23,15.62,15.62,0,0,0-5.46,5.67,18.15,18.15,0,0,0-2,9,18.91,18.91,0,0,0,2.8,10.58,17.62,17.62,0,0,0,7.67,6.48,26.32,26.32,0,0,0,10.94,2.19h0a24.92,24.92,0,0,0,8.74-1.4,18.64,18.64,0,0,0,6.2-3.71,18.35,18.35,0,0,0,3.85-5h.51v8.8h14.51V50.69a21.94,21.94,0,0,0-2.32-10.63A18.31,18.31,0,0,0,214.25,33.33Zm-6.64,37.24a12.4,12.4,0,0,1-1.81,6.54,13.22,13.22,0,0,1-5.14,4.82,16.23,16.23,0,0,1-7.88,1.81h0A13.21,13.21,0,0,1,185,81.62a8.07,8.07,0,0,1-1.49-11.07,10.14,10.14,0,0,1,4.21-2.89,26.51,26.51,0,0,1,6.05-1.51l3.54-.5c1.36-.19,2.74-.41,4.13-.67a34.43,34.43,0,0,0,3.76-.87,7.16,7.16,0,0,0,2.4-1.08Z"/><path class="cls-1" d="M64.17,65.67c-1.36.24-2.7.46-4,.65s-2.48.36-3.46.48a25.72,25.72,0,0,0-5.9,1.47,9.9,9.9,0,0,0-4.11,2.83,7.07,7.07,0,0,0-1.51,4.66,7,7,0,0,0,3,6.14A12.86,12.86,0,0,0,55.71,84v0a16,16,0,0,0,7.7-1.76,12.93,12.93,0,0,0,5-4.71,12.11,12.11,0,0,0,1.77-6.39V63.75a6.93,6.93,0,0,1-2.35,1.07A34.22,34.22,0,0,1,64.17,65.67Z"/><polygon class="cls-1" points="86.28 24.88 86.29 24.88 86.3 24.89 86.28 24.88"/><path class="cls-1" d="M66,11.46c-14.1-5.28-31.55.14-45.53,14.13C4.6,41.5-2.2,63.13,3.19,80.7a36.83,36.83,0,0,0,8.92,14.82C25.67,109.61,51.82,116.83,73,112.31c13-2.77,22.41-9.77,26.48-19.7,9.3-22.68,4-49.89-13.14-67.73A54.47,54.47,0,0,0,66,11.46Zm18.9,82.12H70.73V85h-.5a17.77,17.77,0,0,1-9.84,8.49,24.26,24.26,0,0,1-8.53,1.37,25.86,25.86,0,0,1-10.69-2.14,17.17,17.17,0,0,1-7.49-6.33A18.49,18.49,0,0,1,30.94,76a17.54,17.54,0,0,1,2-8.75,15.07,15.07,0,0,1,5.33-5.54,26.81,26.81,0,0,1,7.64-3.15A63.77,63.77,0,0,1,54.68,57c3.66-.38,6.64-.73,8.92-1a13.1,13.1,0,0,0,5-1.46,3.45,3.45,0,0,0,1.57-3.12v-.24A9.2,9.2,0,0,0,67.43,44C65.61,42.35,63,41.5,59.57,41.5c-3.6,0-6.47.79-8.57,2.37a11.68,11.68,0,0,0-4.25,5.58L33,47.49a21.93,21.93,0,0,1,5.38-9.55,23.72,23.72,0,0,1,9.16-5.79,35.32,35.32,0,0,1,12-1.93,38.85,38.85,0,0,1,9,1.06,25.37,25.37,0,0,1,8.18,3.48,18,18,0,0,1,6,6.58,21.55,21.55,0,0,1,2.26,10.38Z"/><polygon class="cls-1" points="167 29.51 167 29.51 167.01 29.51 167 29.51"/><polygon class="cls-1" points="136.2 77.07 135.54 77.07 120.82 29.51 104.73 29.51 127.53 93.53 144.21 93.53 167 29.51 150.96 29.51 136.2 77.07"/><path class="cls-1" d="M279.54,31.85A22.9,22.9,0,0,0,268,29a21.58,21.58,0,0,0-12,3.16,18.22,18.22,0,0,0-7.07,8.55h-.75V29.85H233.7v64h15.09V56.36h0a16.53,16.53,0,0,1,1.72-7.88,12.22,12.22,0,0,1,4.8-5,14.19,14.19,0,0,1,7-1.72q5.83,0,9.15,3.63t3.31,10V93.87H289.9V53.11a28.32,28.32,0,0,0-2.7-13A19.28,19.28,0,0,0,279.54,31.85Z"/><path class="cls-1" d="M330.43,80.79a16.14,16.14,0,0,1-2.61.21,9.59,9.59,0,0,1-3.42-.59,4.81,4.81,0,0,1-2.48-2.19,9.4,9.4,0,0,1-.94-4.65V40.46h12.64V28.8H321V13.46H305.89V28.8h-9.08V40.46h9.08V76.07a17.6,17.6,0,0,0,2.61,10,15.57,15.57,0,0,0,7.19,5.9,24.35,24.35,0,0,0,10.22,1.72,28.6,28.6,0,0,0,5.44-.59,33.67,33.67,0,0,0,3.44-.91l-2.55-11.79C331.83,80.52,331.22,80.65,330.43,80.79Z"/><path class="cls-1" d="M351.7,2.17a8.39,8.39,0,0,0-6.16,2.57A8.47,8.47,0,0,0,343,11a8.39,8.39,0,0,0,2.59,6.18,8.7,8.7,0,0,0,12.35,0A8.36,8.36,0,0,0,360.46,11a8.47,8.47,0,0,0-2.57-6.22A8.44,8.44,0,0,0,351.7,2.17Z"/><rect class="cls-1" x="344.12" y="29.58" width="15.09" height="64.02"/><path class="cls-1" d="M425.42,43.68a27.85,27.85,0,0,0-10.65-11.59,34.05,34.05,0,0,0-32.51,0,27.9,27.9,0,0,0-10.64,11.59,38,38,0,0,0-3.77,17.38,37.74,37.74,0,0,0,3.77,17.34A27.91,27.91,0,0,0,382.26,90a34.13,34.13,0,0,0,32.51,0A28.05,28.05,0,0,0,425.42,78.4a37.86,37.86,0,0,0,3.77-17.34A38.12,38.12,0,0,0,425.42,43.68ZM412.2,71.6a16.71,16.71,0,0,1-5.1,7.56A12.84,12.84,0,0,1,398.6,82,13.21,13.21,0,0,1,390,79.16a16.75,16.75,0,0,1-5.12-7.56A31.48,31.48,0,0,1,383.15,61a31.65,31.65,0,0,1,1.68-10.65,16.93,16.93,0,0,1,5.12-7.6,13.31,13.31,0,0,1,8.65-2.83,12.81,12.81,0,0,1,8.5,2.83,17,17,0,0,1,5.1,7.6A32.07,32.07,0,0,1,413.89,61,31.35,31.35,0,0,1,412.2,71.6Z"/></svg>